<svg width="1137" height="301" viewBox="0 0 1137 301" fill="none" xmlns="http://www.w3.org/2000/svg">
<line y1="-1.5" x2="1134.17" y2="-1.5" transform="matrix(1 4.45226e-05 -0.000209835 1 0.215515 77.0909)" stroke="white" stroke-opacity="0.25" stroke-width="3"/>
<line y1="-1.5" x2="1134.17" y2="-1.5" transform="matrix(1 3.35465e-05 -0.000278491 1 2.83484 114.364)" stroke="white" stroke-opacity="0.25" stroke-width="3"/>
<line y1="-1.5" x2="1134.17" y2="-1.5" transform="matrix(1 3.35465e-05 -0.000278491 1 2.83484 151.636)" stroke="white" stroke-opacity="0.25" stroke-width="3"/>
<line y1="-1.5" x2="1134.17" y2="-1.5" transform="matrix(1 4.45226e-05 -0.000209835 1 0.215515 188.909)" stroke="white" stroke-opacity="0.25" stroke-width="3"/>
<line y1="-1.5" x2="1134.17" y2="-1.5" transform="matrix(1 8.18073e-05 -0.0001142 1 0 3)" stroke="white" stroke-opacity="0.25" stroke-width="3"/>
<line y1="-1.5" x2="1134.17" y2="-1.5" transform="matrix(1 8.18073e-05 -0.0001142 1 0 40)" stroke="white" stroke-opacity="0.25" stroke-width="3"/>
<line y1="-1.5" x2="1134.17" y2="-1.5" transform="matrix(1 4.45226e-05 -0.000209835 1 0.215515 226.182)" stroke="white" stroke-opacity="0.25" stroke-width="3"/>
<line y1="-1.5" x2="1134.17" y2="-1.5" transform="matrix(1 4.45226e-05 -0.000209835 1 0.215515 263.455)" stroke="white" stroke-opacity="0.25" stroke-width="3"/>
<line y1="-1.5" x2="1134.17" y2="-1.5" transform="matrix(1 3.35465e-05 -0.000278491 1 2.83484 300.727)" stroke="white" stroke-opacity="0.25" stroke-width="3"/>
</svg>
