<svg width="1137" height="478" viewBox="0 0 1137 478" fill="none" xmlns="http://www.w3.org/2000/svg">
<path d="M0 32C0 20.799 0 15.1984 2.17987 10.9202C4.09734 7.15695 7.15695 4.09734 10.9202 2.17987C15.1984 0 20.799 0 32 0H1105C1116.2 0 1121.8 0 1126.08 2.17987C1129.84 4.09734 1132.9 7.15695 1134.82 10.9202C1137 15.1984 1137 20.799 1137 32V446C1137 457.201 1137 462.802 1134.82 467.08C1132.9 470.843 1129.84 473.903 1126.08 475.82C1121.8 478 1116.2 478 1105 478H32C20.799 478 15.1984 478 10.9202 475.82C7.15695 473.903 4.09734 470.843 2.17987 467.08C0 462.802 0 457.201 0 446V32Z" fill="#00B7F1" fill-opacity="0.12"/>
</svg>
