<svg width="1137" height="239" viewBox="0 0 1137 239" fill="none" xmlns="http://www.w3.org/2000/svg">
<line y1="-1.5" x2="1134.17" y2="-1.5" transform="matrix(1 4.01864e-05 -0.000232476 1 0.215515 36.875)" stroke="white" stroke-opacity="0.25" stroke-width="3"/>
<line y1="-1.5" x2="1134.17" y2="-1.5" transform="matrix(1 3.02793e-05 -0.00030854 1 2.83484 70.5177)" stroke="white" stroke-opacity="0.25" stroke-width="3"/>
<line y1="-1.5" x2="1134.17" y2="-1.5" transform="matrix(1 3.02793e-05 -0.00030854 1 2.83484 104.16)" stroke="white" stroke-opacity="0.25" stroke-width="3"/>
<line y1="-1.5" x2="1134.17" y2="-1.5" transform="matrix(1 4.01864e-05 -0.000232476 1 0.215515 137.803)" stroke="white" stroke-opacity="0.25" stroke-width="3"/>
<line y1="-1.5" x2="1134.17" y2="-1.5" transform="matrix(1 7.38399e-05 -0.000126522 1 0 3.39648)" stroke="white" stroke-opacity="0.25" stroke-width="3"/>
<line y1="-1.5" x2="1134.17" y2="-1.5" transform="matrix(1 4.01864e-05 -0.000232476 1 0.215515 171.446)" stroke="white" stroke-opacity="0.25" stroke-width="3"/>
<line y1="-1.5" x2="1134.17" y2="-1.5" transform="matrix(1 4.01864e-05 -0.000232476 1 0.215515 205.088)" stroke="white" stroke-opacity="0.25" stroke-width="3"/>
<line y1="-1.5" x2="1134.17" y2="-1.5" transform="matrix(1 3.02793e-05 -0.00030854 1 2.83484 238.731)" stroke="white" stroke-opacity="0.25" stroke-width="3"/>
</svg>
