<svg width="1137" height="47" viewBox="0 0 1137 47" fill="none" xmlns="http://www.w3.org/2000/svg">
<path d="M0 23.5C0 20.2489 0 18.6234 0.188613 17.2598C1.41554 8.38931 8.38931 1.41554 17.2598 0.188613C18.6234 0 20.2489 0 23.5 0H1113.5C1116.75 0 1118.38 0 1119.74 0.188613C1128.61 1.41554 1135.58 8.38931 1136.81 17.2598C1137 18.6234 1137 20.2489 1137 23.5C1137 26.7511 1137 28.3766 1136.81 29.7402C1135.58 38.6107 1128.61 45.5845 1119.74 46.8114C1118.38 47 1116.75 47 1113.5 47H23.5C20.2489 47 18.6234 47 17.2598 46.8114C8.38931 45.5845 1.41554 38.6107 0.188613 29.7402C0 28.3766 0 26.7511 0 23.5Z" fill="#00B7F1" fill-opacity="0.12"/>
</svg>
