<svg width="1137" height="343" viewBox="0 0 1137 343" fill="none" xmlns="http://www.w3.org/2000/svg">
<path d="M0 32C0 20.7989 0 15.1984 2.17987 10.9202C4.09734 7.15695 7.15695 4.09734 10.9202 2.17987C15.1984 0 20.799 0 32 0H1105C1116.2 0 1121.8 0 1126.08 2.17987C1129.84 4.09734 1132.9 7.15695 1134.82 10.9202C1137 15.1984 1137 20.799 1137 32V311C1137 322.201 1137 327.802 1134.82 332.08C1132.9 335.843 1129.84 338.903 1126.08 340.82C1121.8 343 1116.2 343 1105 343H32C20.799 343 15.1984 343 10.9202 340.82C7.15695 338.903 4.09734 335.843 2.17987 332.08C0 327.802 0 322.201 0 311V32Z" fill="#00B7F1" fill-opacity="0.12"/>
</svg>
